
<svg width="300" height="100" viewBox="0 0 300 100" fill="none" xmlns="http://www.w3.org/2000/svg">
  <g>
    <!-- G -->
    <path d="M92.8 75C82.4 75 74 66.6 74 56.2C74 45.8 82.4 37.4 92.8 37.4C103.2 37.4 111.6 45.8 111.6 56.2C111.6 66.6 103.2 75 92.8 75ZM92.8 49.4C89.2 49.4 86.3 52.4 86.3 56.1C86.3 59.8 89.3 62.7 92.9 62.7C96.5 62.7 99.4 59.7 99.4 56.1C99.4 52.5 96.4 49.4 92.8 49.4Z" fill="#FFFFFF"/>
    <!-- A -->
    <path d="M164.8 38.6L151 62.9H144.5L130.6 38.6H144.2L150.7 51.4L157.2 38.6H164.8Z" fill="#FFFFFF"/>
    <!-- G -->
    <path d="M225 75C214.6 75 206.2 66.6 206.2 56.2C206.2 45.8 214.6 37.4 225 37.4C235.4 37.4 243.8 45.8 243.8 56.2C243.8 66.6 235.4 75 225 75ZM225 49.4C221.4 49.4 218.5 52.4 218.5 56.1C218.5 59.8 221.5 62.7 225.1 62.7C228.7 62.7 231.6 59.7 231.6 56.1C231.6 52.5 228.6 49.4 225 49.4Z" fill="#FFFFFF"/>
    <!-- Pixel dots on the left of the G -->
    <rect x="60" y="56" width="5" height="5" fill="#FFFFFF"/>
    <rect x="50" y="56" width="5" height="5" fill="#FFFFFF"/>
    <rect x="55" y="51" width="5" height="5" fill="#FFFFFF"/>
    <rect x="60" y="46" width="5" height="5" fill="#FFFFFF"/>
    <rect x="65" y="41" width="5" height="5" fill="#FFFFFF"/>
    <rect x="70" y="36" width="5" height="5" fill="#FFFFFF"/>
    <rect x="75" y="31" width="5" height="5" fill="#FFFFFF"/>
  </g>
</svg>
